<svg xmlns="http://www.w3.org/2000/svg" xmlns:xlink="http://www.w3.org/1999/xlink" width="500" zoomAndPan="magnify" viewBox="0 0 375 375" height="500" preserveAspectRatio="xMidYMid meet" xmlns:v="https://vecta.io/nano"><style><![CDATA[.B{clip-rule:nonzero}.C{fill:#0a2351}]]></style><defs><clipPath id="A"><path d="M51.453 155h76.5v46h-76.5zm0 0" class="B"/></clipPath><clipPath id="B"><path d="M51.453 199H77v37H51.453zm0 0" class="B"/></clipPath><clipPath id="C"><path d="M76 199h27v38.496H76zm0 0" class="B"/></clipPath><clipPath id="D"><path d="M101 199h26.953v37H101zm0 0" class="B"/></clipPath><clipPath id="E"><path d="M51.453 145.246h76.5V156h-76.5zm0 0" class="B"/></clipPath><clipPath id="F"><path d="M28.793 147.512H71v85.188H28.793zm0 0" class="B"/></clipPath><clipPath id="G"><path d="M108 147.512h42.293v85.188H108zm0 0" class="B"/></clipPath><path id="H" d="M183.793 183v-6.25h1.906v-17.125h-1.906v-6.234h25.688v11.484h-8.531v-5.25h-4.594v6.016h3.344v4.344h-3.344v6.766h4.594v-6h8.531V183zm0 0"/></defs><path fill="#fff" d="M-37.5-37.5h450v450h-450z"/><g clip-path="url(#A)" class="C"><path d="M51.461 155.441h76.215v44.934H51.461zm0 0"/></g><g clip-path="url(#B)" class="C"><path d="M76.871 235.875v-35.941h-25.41c0 16.598 10.609 30.715 25.41 35.941zm0 0"/></g><g clip-path="url(#C)" class="C"><path d="M102.266 199.934H76.598v35.836c3.977 1.402 8.52 2.27 12.969 2.27a38.04 38.04 0 0 0 12.699-2.164zm0 0"/></g><g clip-path="url(#D)" class="C"><path d="M127.676 199.934h-25.684v36.031c14.797-5.227 25.684-19.434 25.684-36.031zm0 0"/></g><g clip-path="url(#E)" class="C"><path d="M51.461 144.984h76.215v10.836H51.461zm0 0"/></g><g clip-path="url(#F)"><path fill="#b6922e" d="M70.219 232.504c-2.066-.512-4.035-1.219-5.906-2.066-.027-.051-.051-.098-.098-.148l-.027-.023c-.094-3.355-2.695-6.855-5.055-9.043-.316-.293-.996-.121-.949.387.34 2.723 1.434 5.375 3.281 7.391-3.16-1.773-6.004-4.008-8.605-6.609.051-.074.074-.172.074-.27.023-2.262-.293-4.449-1.07-6.586-.559-1.531-1.289-3.551-2.797-4.352-.34-.172-.75.047-.75.438-.051 2.648.508 5.297 1.723 7.633-.437-.512-.848-1.047-1.262-1.582-2.625-3.449-4.984-7.219-6.906-11.156.027-.051.051-.121.027-.195s-.027-.145-.051-.219c.074-.023.172-.074.219-.172 2.43-3.598 2.043-8.945.949-12.93-.121-.465-.73-.488-.973-.125-2.238 3.258-2.262 7.004-1.531 10.648-1.289-3.039-2.285-6.199-2.918-9.43-.266-1.363-.461-2.723-.559-4.062a.48.48 0 0 0 .242-.07c3.574-2.164 5.566-6.977 6.125-10.941.074-.512-.484-.949-.922-.535-2.48 2.383-4.426 5.227-5.566 8.438.07-5.082 1.262-9.969 3.258-14.613a.45.45 0 0 0 .316.125c4.18-.195 8.141-3.867 10.258-7.223.242-.387-.172-.945-.609-.801-3.039 1.02-5.832 2.48-8.312 4.473 2.285-4.375 5.203-8.484 8.461-12.254h.023c2.066-1.02 4.473-1.871 6.148-3.5 1.438-1.41 2.215-3.328 2.969-5.152.242-.586-.488-.898-.926-.633-.047-.023-.074-.023-.145-.023-1.871.219-3.527.949-4.887 2.262-1.484 1.457-2.187 3.426-3.281 5.152a59.73 59.73 0 0 0-6.785 8.871c.586-4.496 1.34-9.309.172-13.734-.145-.535-.801-.535-1.07-.145-3.258 4.57-3.621 11.086-.195 15.68-2.164 3.742-3.863 7.754-4.957 11.84a91.56 91.56 0 0 0-.437-5.203c-.121-1.145.121-3.426-.875-4.23-.195-.168-.465-.219-.684-.098-3.766 2.285-2.137 10.988 1.121 13.031.023.023.047.023.098.023-.562 3.16-.754 6.344-.488 9.555v.023a.33.33 0 0 0 .023.148 32.93 32.93 0 0 0 .465 3.402c.145.801.34 1.578.535 2.355-.875-1.48-1.973-2.965-2.992-4.254-1.191-1.504-2.602-2.695-4.496-3.207-.437-.121-.777.266-.707.703.926 4.379 4.23 8.195 8.605 9.387.121.023.219 0 .293-.051 1.336 4.352 3.281 8.582 5.617 12.52-.949-.777-1.945-1.48-3.016-2.066-1.434-.801-3.453-2.043-5.129-1.508-.293.098-.512.414-.414.707 1.434 4.426 5.957 7.27 10.527 6.027h.023c.996 1.508 2.066 2.969 3.16 4.352 1.727 2.215 3.672 4.352 5.809 6.273-2.672-1.363-6.027-1.68-8.824-1.387-.461.051-.754.582-.387.949 3.039 3.016 7.656 4.23 11.715 2.648.051-.023.074-.047.098-.07 3.867 2.914 8.266 5.055 13.129 5.734.293.098.461-.414.098-.508zm-16.145-81.855l-.191.414c-.172.148-.34.293-.512.461.219-.312.461-.605.703-.875zm0 0"/></g><g clip-path="url(#G)"><path fill="#b6922e" d="M109.234 233.063c4.863-.684 9.262-2.82 13.129-5.738.023.023.074.047.098.074 4.059 1.578 8.68.363 11.719-2.652.363-.363.07-.898-.391-.945-2.773-.27-6.152.047-8.824 1.383 2.141-1.918 4.082-4.035 5.809-6.27 1.094-1.41 2.141-2.871 3.16-4.352h.027c4.57 1.215 9.09-1.605 10.523-6.031.098-.316-.121-.605-.414-.703-1.676-.559-3.695.68-5.129 1.508a20.97 20.97 0 0 0-3.012 2.066c2.332-3.965 4.277-8.168 5.613-12.52.074.047.172.07.293.047 4.375-1.191 7.68-5.008 8.605-9.383a.59.59 0 0 0-.707-.707c-1.895.488-3.281 1.68-4.496 3.211-1.02 1.289-2.113 2.77-2.988 4.254.191-.777.363-1.582.535-2.359.219-1.141.363-2.262.461-3.402.023-.047.023-.098.023-.145v-.027c.27-3.184.074-6.391-.484-9.551.023 0 .047-.027.098-.027 3.254-2.039 4.883-10.742 1.117-13.027-.219-.148-.488-.074-.68.098-1 .824-.754 3.086-.879 4.227a97.3 97.3 0 0 0-.437 5.203c-1.094-4.109-2.816-8.094-4.957-11.84 3.426-4.594 3.063-11.109-.195-15.703-.266-.387-.949-.387-1.07.145-1.164 4.426-.414 9.238.172 13.738-1.992-3.187-4.277-6.176-6.809-8.898-1.07-1.727-1.773-3.695-3.281-5.152-1.359-1.312-3.016-2.043-4.887-2.262-.047 0-.098 0-.145.023-.437-.266-1.145.047-.926.633.754 1.824 1.531 3.742 2.969 5.152 1.676 1.629 4.082 2.48 6.148 3.5h.023c3.258 3.77 6.176 7.879 8.461 12.254-2.48-1.992-5.273-3.453-8.312-4.473-.465-.145-.852.414-.609.801 2.09 3.332 6.078 7.027 10.258 7.223.125 0 .219-.051.316-.125 1.969 4.645 3.188 9.531 3.258 14.613-1.141-3.211-3.086-6.055-5.566-8.437-.437-.414-.996.023-.922.535.559 3.965 2.551 8.777 6.125 10.941.098.047.168.07.242.07-.098 1.34-.293 2.699-.559 4.063-.656 3.207-1.652 6.367-2.918 9.43.73-3.668.707-7.391-1.531-10.648-.242-.363-.852-.34-.973.125-1.094 3.984-1.48 9.359.949 12.93.074.098.145.148.219.172-.023.074-.023.145-.051.219s0 .145.027.195c-1.922 3.961-4.305 7.707-6.906 11.156-.414.535-.824 1.07-1.262 1.582 1.191-2.336 1.75-4.984 1.723-7.633 0-.391-.41-.609-.75-.437-1.484.801-2.215 2.82-2.797 4.352-.777 2.113-1.094 4.324-1.07 6.586 0 .098.023.195.074.27-2.578 2.602-5.445 4.836-8.605 6.609 1.848-2.016 2.965-4.664 3.281-7.391.07-.508-.633-.68-.949-.387-2.359 2.188-4.957 5.688-5.055 9.043l-.027.023a.52.52 0 0 0-.094.148c-1.875.848-3.844 1.531-5.91 2.066-.414.094-.242.605.121.559zm16.68-81.562c-.172-.145-.344-.289-.512-.461-.074-.145-.121-.266-.195-.391a13.39 13.39 0 0 1 .707.852zm0 0"/></g><path d="M73.728 207.61v-7.453h2.266v-20.422h-2.266v-7.453h30.656v13.719H94.213v-6.266h-5.5v7.172h4v5.172h-4v8.078h5.5v-7.172h10.172v14.625zm0 0" fill="#fff"/><g class="C"><path d="M171.085 183.531c-4.805 0-8.508-1.219-11.109-3.656-2.594-2.437-3.891-6.332-3.891-11.687 0-10.219 4.973-15.328 14.922-15.328 2.406 0 4.645.293 6.719.875s3.613 1.23 4.625 1.938v9.516h-9.141v-2.734c0-.969-.219-1.68-.656-2.141-.43-.457-1.07-.687-1.922-.687-.867 0-1.516.23-1.953.688-.43.461-.641 1.172-.641 2.141v11.484c0 .969.211 1.684.641 2.141.438.449 1.086.672 1.953.672.852 0 1.492-.223 1.922-.672.438-.457.656-1.172.656-2.141v-3.078h9.141v9.859c-1.043.711-2.586 1.355-4.625 1.938s-4.258.875-6.641.875zm0 0"/><use xlink:href="#H"/><path d="M232.845 153.391h12.484v6.234h-1.906V183h-10.687l-11.156-17.172v10.922h1.828V183h-12.484v-6.25h1.906v-17.125h-1.906v-6.234h13.734l10.016 15.266v-9.031h-1.828zm42.312 9.203h-6.547v-2.969h-2.437v17.125h2.672V183h-16v-6.25h2.672v-17.125h-2.437v2.969h-6.547v-9.203h28.625zm0 0"/><use xlink:href="#H" x="92.653"/><path d="M303.576 176.75h1.906v-17.125h-1.906v-6.234h17.469c3.27 0 5.766.672 7.484 2.016 1.727 1.344 2.594 3.527 2.594 6.547 0 1.699-.344 3.172-1.031 4.422-.68 1.242-1.652 2.102-2.922 2.578l.031.375c2.438.387 3.656 1.887 3.656 4.5v2.922h1.797V183h-12.062v-8.937c0-.988-.148-1.738-.437-2.25s-.75-.852-1.375-1.031-1.508-.266-2.641-.266v6.234h2.5V183h-15.062zm14.609-10.875c.738 0 1.289-.195 1.656-.594s.547-1.008.547-1.844v-1.375c0-.832-.184-1.445-.547-1.844s-.918-.594-1.656-.594h-2.047v6.25zM156.32 219v-6.25h1.906v-17.125h-1.906v-6.234h16.063v6.234h-3.5v17.125h3.422v-3.5h7.578V219zm0 0"/><path d="M234.566 195.625h-1.906v17.125h1.906V219h-14.391v-6.25h1.828v-13.312L215.535 219h-5.641l-6.656-19.375v13.125h1.828V219h-12.484v-6.25h1.906v-17.125h-1.906v-6.234h17.422l3.969 11.875 3.797-11.875h16.797zm24.721 23.906c-2.437 0-4.746-.211-6.922-.625-2.168-.414-3.836-.891-5-1.422v-7.547h8.375c0 .793.176 1.367.531 1.719.363.355 1.016.531 1.953.531.781 0 1.344-.117 1.688-.359s.516-.602.516-1.094c0-.406-.168-.754-.5-1.047-.324-.289-.891-.586-1.703-.891l-3.281-1.141c-2.812-1.062-4.84-2.316-6.078-3.766-1.23-1.445-1.844-3.398-1.844-5.859 0-3 .984-5.273 2.953-6.828 1.969-1.562 5.25-2.344 9.844-2.344 2.207 0 4.281.227 6.219.672 1.945.438 3.516 1.027 4.703 1.766v6.813h-7.609c0-1.27-.789-1.906-2.359-1.906-.762 0-1.305.094-1.625.281-.312.188-.469.527-.469 1.016 0 .43.18.773.547 1.031.375.25.977.516 1.813.797l3.313 1.141c2.688.906 4.645 2.094 5.875 3.563 1.227 1.461 1.844 3.367 1.844 5.719 0 3.219-1.086 5.656-3.25 7.313-2.168 1.648-5.344 2.469-9.531 2.469zm0 0"/></g></svg>